<mxfile host="app.diagrams.net" modified="2021-09-21T03:56:25.809Z" agent="5.0 (Windows)" etag="K5Ehgg5HFJptzt6wlZbZ" version="15.2.7" type="github">
  <diagram id="pSXfxbg5f-xyUSNqCcTy" name="Page-1">
    <mxGraphModel dx="1108" dy="412" grid="1" gridSize="10" guides="1" tooltips="1" connect="1" arrows="1" fold="1" page="1" pageScale="1" pageWidth="827" pageHeight="1169" math="0" shadow="0">
      <root>
        <mxCell id="0" />
        <mxCell id="1" parent="0" />
        <mxCell id="9ZiiuT-V2A9aqYbKqf6l-1" value="CBU 4W TABLE" style="shape=table;startSize=30;container=1;collapsible=1;childLayout=tableLayout;fixedRows=1;rowLines=0;fontStyle=1;align=center;resizeLast=1;" vertex="1" parent="1">
          <mxGeometry x="320" y="130" width="180" height="430" as="geometry" />
        </mxCell>
        <mxCell id="9ZiiuT-V2A9aqYbKqf6l-2" value="" style="shape=partialRectangle;collapsible=0;dropTarget=0;pointerEvents=0;fillColor=none;top=0;left=0;bottom=1;right=0;points=[[0,0.5],[1,0.5]];portConstraint=eastwest;" vertex="1" parent="9ZiiuT-V2A9aqYbKqf6l-1">
          <mxGeometry y="30" width="180" height="30" as="geometry" />
        </mxCell>
        <mxCell id="9ZiiuT-V2A9aqYbKqf6l-3" value="PK" style="shape=partialRectangle;connectable=0;fillColor=none;top=0;left=0;bottom=0;right=0;fontStyle=1;overflow=hidden;" vertex="1" parent="9ZiiuT-V2A9aqYbKqf6l-2">
          <mxGeometry width="30" height="30" as="geometry" />
        </mxCell>
        <mxCell id="9ZiiuT-V2A9aqYbKqf6l-4" value="No" style="shape=partialRectangle;connectable=0;fillColor=none;top=0;left=0;bottom=0;right=0;align=left;spacingLeft=6;fontStyle=5;overflow=hidden;" vertex="1" parent="9ZiiuT-V2A9aqYbKqf6l-2">
          <mxGeometry x="30" width="150" height="30" as="geometry" />
        </mxCell>
        <mxCell id="9ZiiuT-V2A9aqYbKqf6l-5" value="" style="shape=partialRectangle;collapsible=0;dropTarget=0;pointerEvents=0;fillColor=none;top=0;left=0;bottom=0;right=0;points=[[0,0.5],[1,0.5]];portConstraint=eastwest;" vertex="1" parent="9ZiiuT-V2A9aqYbKqf6l-1">
          <mxGeometry y="60" width="180" height="30" as="geometry" />
        </mxCell>
        <mxCell id="9ZiiuT-V2A9aqYbKqf6l-6" value="" style="shape=partialRectangle;connectable=0;fillColor=none;top=0;left=0;bottom=0;right=0;editable=1;overflow=hidden;" vertex="1" parent="9ZiiuT-V2A9aqYbKqf6l-5">
          <mxGeometry width="30" height="30" as="geometry" />
        </mxCell>
        <mxCell id="9ZiiuT-V2A9aqYbKqf6l-7" value="Invoice_no" style="shape=partialRectangle;connectable=0;fillColor=none;top=0;left=0;bottom=0;right=0;align=left;spacingLeft=6;overflow=hidden;" vertex="1" parent="9ZiiuT-V2A9aqYbKqf6l-5">
          <mxGeometry x="30" width="150" height="30" as="geometry" />
        </mxCell>
        <mxCell id="9ZiiuT-V2A9aqYbKqf6l-38" value="" style="shape=partialRectangle;collapsible=0;dropTarget=0;pointerEvents=0;fillColor=none;top=0;left=0;bottom=0;right=0;points=[[0,0.5],[1,0.5]];portConstraint=eastwest;" vertex="1" parent="9ZiiuT-V2A9aqYbKqf6l-1">
          <mxGeometry y="90" width="180" height="30" as="geometry" />
        </mxCell>
        <mxCell id="9ZiiuT-V2A9aqYbKqf6l-39" value="" style="shape=partialRectangle;connectable=0;fillColor=none;top=0;left=0;bottom=0;right=0;editable=1;overflow=hidden;" vertex="1" parent="9ZiiuT-V2A9aqYbKqf6l-38">
          <mxGeometry width="30" height="30" as="geometry" />
        </mxCell>
        <mxCell id="9ZiiuT-V2A9aqYbKqf6l-40" value="BL_no" style="shape=partialRectangle;connectable=0;fillColor=none;top=0;left=0;bottom=0;right=0;align=left;spacingLeft=6;overflow=hidden;" vertex="1" parent="9ZiiuT-V2A9aqYbKqf6l-38">
          <mxGeometry x="30" width="150" height="30" as="geometry" />
        </mxCell>
        <mxCell id="9ZiiuT-V2A9aqYbKqf6l-8" value="" style="shape=partialRectangle;collapsible=0;dropTarget=0;pointerEvents=0;fillColor=none;top=0;left=0;bottom=0;right=0;points=[[0,0.5],[1,0.5]];portConstraint=eastwest;" vertex="1" parent="9ZiiuT-V2A9aqYbKqf6l-1">
          <mxGeometry y="120" width="180" height="30" as="geometry" />
        </mxCell>
        <mxCell id="9ZiiuT-V2A9aqYbKqf6l-9" value="" style="shape=partialRectangle;connectable=0;fillColor=none;top=0;left=0;bottom=0;right=0;editable=1;overflow=hidden;" vertex="1" parent="9ZiiuT-V2A9aqYbKqf6l-8">
          <mxGeometry width="30" height="30" as="geometry" />
        </mxCell>
        <mxCell id="9ZiiuT-V2A9aqYbKqf6l-10" value="BL_date" style="shape=partialRectangle;connectable=0;fillColor=none;top=0;left=0;bottom=0;right=0;align=left;spacingLeft=6;overflow=hidden;" vertex="1" parent="9ZiiuT-V2A9aqYbKqf6l-8">
          <mxGeometry x="30" width="150" height="30" as="geometry" />
        </mxCell>
        <mxCell id="9ZiiuT-V2A9aqYbKqf6l-11" value="" style="shape=partialRectangle;collapsible=0;dropTarget=0;pointerEvents=0;fillColor=none;top=0;left=0;bottom=0;right=0;points=[[0,0.5],[1,0.5]];portConstraint=eastwest;" vertex="1" parent="9ZiiuT-V2A9aqYbKqf6l-1">
          <mxGeometry y="150" width="180" height="30" as="geometry" />
        </mxCell>
        <mxCell id="9ZiiuT-V2A9aqYbKqf6l-12" value="" style="shape=partialRectangle;connectable=0;fillColor=none;top=0;left=0;bottom=0;right=0;editable=1;overflow=hidden;" vertex="1" parent="9ZiiuT-V2A9aqYbKqf6l-11">
          <mxGeometry width="30" height="30" as="geometry" />
        </mxCell>
        <mxCell id="9ZiiuT-V2A9aqYbKqf6l-13" value="SO_no" style="shape=partialRectangle;connectable=0;fillColor=none;top=0;left=0;bottom=0;right=0;align=left;spacingLeft=6;overflow=hidden;" vertex="1" parent="9ZiiuT-V2A9aqYbKqf6l-11">
          <mxGeometry x="30" width="150" height="30" as="geometry" />
        </mxCell>
        <mxCell id="9ZiiuT-V2A9aqYbKqf6l-14" value="" style="shape=partialRectangle;collapsible=0;dropTarget=0;pointerEvents=0;fillColor=none;top=0;left=0;bottom=0;right=0;points=[[0,0.5],[1,0.5]];portConstraint=eastwest;" vertex="1" parent="9ZiiuT-V2A9aqYbKqf6l-1">
          <mxGeometry y="180" width="180" height="30" as="geometry" />
        </mxCell>
        <mxCell id="9ZiiuT-V2A9aqYbKqf6l-15" value="" style="shape=partialRectangle;connectable=0;fillColor=none;top=0;left=0;bottom=0;right=0;editable=1;overflow=hidden;" vertex="1" parent="9ZiiuT-V2A9aqYbKqf6l-14">
          <mxGeometry width="30" height="30" as="geometry" />
        </mxCell>
        <mxCell id="9ZiiuT-V2A9aqYbKqf6l-16" value="Vendor_model_code" style="shape=partialRectangle;connectable=0;fillColor=none;top=0;left=0;bottom=0;right=0;align=left;spacingLeft=6;overflow=hidden;" vertex="1" parent="9ZiiuT-V2A9aqYbKqf6l-14">
          <mxGeometry x="30" width="150" height="30" as="geometry" />
        </mxCell>
        <mxCell id="9ZiiuT-V2A9aqYbKqf6l-17" value="" style="shape=partialRectangle;collapsible=0;dropTarget=0;pointerEvents=0;fillColor=none;top=0;left=0;bottom=0;right=0;points=[[0,0.5],[1,0.5]];portConstraint=eastwest;" vertex="1" parent="9ZiiuT-V2A9aqYbKqf6l-1">
          <mxGeometry y="210" width="180" height="30" as="geometry" />
        </mxCell>
        <mxCell id="9ZiiuT-V2A9aqYbKqf6l-18" value="" style="shape=partialRectangle;connectable=0;fillColor=none;top=0;left=0;bottom=0;right=0;editable=1;overflow=hidden;" vertex="1" parent="9ZiiuT-V2A9aqYbKqf6l-17">
          <mxGeometry width="30" height="30" as="geometry" />
        </mxCell>
        <mxCell id="9ZiiuT-V2A9aqYbKqf6l-19" value="Qty" style="shape=partialRectangle;connectable=0;fillColor=none;top=0;left=0;bottom=0;right=0;align=left;spacingLeft=6;overflow=hidden;" vertex="1" parent="9ZiiuT-V2A9aqYbKqf6l-17">
          <mxGeometry x="30" width="150" height="30" as="geometry" />
        </mxCell>
        <mxCell id="9ZiiuT-V2A9aqYbKqf6l-20" value="" style="shape=partialRectangle;collapsible=0;dropTarget=0;pointerEvents=0;fillColor=none;top=0;left=0;bottom=0;right=0;points=[[0,0.5],[1,0.5]];portConstraint=eastwest;" vertex="1" parent="9ZiiuT-V2A9aqYbKqf6l-1">
          <mxGeometry y="240" width="180" height="30" as="geometry" />
        </mxCell>
        <mxCell id="9ZiiuT-V2A9aqYbKqf6l-21" value="" style="shape=partialRectangle;connectable=0;fillColor=none;top=0;left=0;bottom=0;right=0;editable=1;overflow=hidden;" vertex="1" parent="9ZiiuT-V2A9aqYbKqf6l-20">
          <mxGeometry width="30" height="30" as="geometry" />
        </mxCell>
        <mxCell id="9ZiiuT-V2A9aqYbKqf6l-22" value="Starting_cases" style="shape=partialRectangle;connectable=0;fillColor=none;top=0;left=0;bottom=0;right=0;align=left;spacingLeft=6;overflow=hidden;" vertex="1" parent="9ZiiuT-V2A9aqYbKqf6l-20">
          <mxGeometry x="30" width="150" height="30" as="geometry" />
        </mxCell>
        <mxCell id="9ZiiuT-V2A9aqYbKqf6l-23" value="" style="shape=partialRectangle;collapsible=0;dropTarget=0;pointerEvents=0;fillColor=none;top=0;left=0;bottom=0;right=0;points=[[0,0.5],[1,0.5]];portConstraint=eastwest;" vertex="1" parent="9ZiiuT-V2A9aqYbKqf6l-1">
          <mxGeometry y="270" width="180" height="30" as="geometry" />
        </mxCell>
        <mxCell id="9ZiiuT-V2A9aqYbKqf6l-24" value="" style="shape=partialRectangle;connectable=0;fillColor=none;top=0;left=0;bottom=0;right=0;editable=1;overflow=hidden;" vertex="1" parent="9ZiiuT-V2A9aqYbKqf6l-23">
          <mxGeometry width="30" height="30" as="geometry" />
        </mxCell>
        <mxCell id="9ZiiuT-V2A9aqYbKqf6l-25" value="vin_number" style="shape=partialRectangle;connectable=0;fillColor=none;top=0;left=0;bottom=0;right=0;align=left;spacingLeft=6;overflow=hidden;" vertex="1" parent="9ZiiuT-V2A9aqYbKqf6l-23">
          <mxGeometry x="30" width="150" height="30" as="geometry" />
        </mxCell>
        <mxCell id="9ZiiuT-V2A9aqYbKqf6l-26" value="" style="shape=partialRectangle;collapsible=0;dropTarget=0;pointerEvents=0;fillColor=none;top=0;left=0;bottom=0;right=0;points=[[0,0.5],[1,0.5]];portConstraint=eastwest;" vertex="1" parent="9ZiiuT-V2A9aqYbKqf6l-1">
          <mxGeometry y="300" width="180" height="30" as="geometry" />
        </mxCell>
        <mxCell id="9ZiiuT-V2A9aqYbKqf6l-27" value="" style="shape=partialRectangle;connectable=0;fillColor=none;top=0;left=0;bottom=0;right=0;editable=1;overflow=hidden;" vertex="1" parent="9ZiiuT-V2A9aqYbKqf6l-26">
          <mxGeometry width="30" height="30" as="geometry" />
        </mxCell>
        <mxCell id="9ZiiuT-V2A9aqYbKqf6l-28" value="Engine_number" style="shape=partialRectangle;connectable=0;fillColor=none;top=0;left=0;bottom=0;right=0;align=left;spacingLeft=6;overflow=hidden;" vertex="1" parent="9ZiiuT-V2A9aqYbKqf6l-26">
          <mxGeometry x="30" width="150" height="30" as="geometry" />
        </mxCell>
        <mxCell id="9ZiiuT-V2A9aqYbKqf6l-29" value="" style="shape=partialRectangle;collapsible=0;dropTarget=0;pointerEvents=0;fillColor=none;top=0;left=0;bottom=0;right=0;points=[[0,0.5],[1,0.5]];portConstraint=eastwest;" vertex="1" parent="9ZiiuT-V2A9aqYbKqf6l-1">
          <mxGeometry y="330" width="180" height="30" as="geometry" />
        </mxCell>
        <mxCell id="9ZiiuT-V2A9aqYbKqf6l-30" value="" style="shape=partialRectangle;connectable=0;fillColor=none;top=0;left=0;bottom=0;right=0;editable=1;overflow=hidden;" vertex="1" parent="9ZiiuT-V2A9aqYbKqf6l-29">
          <mxGeometry width="30" height="30" as="geometry" />
        </mxCell>
        <mxCell id="9ZiiuT-V2A9aqYbKqf6l-31" value="color" style="shape=partialRectangle;connectable=0;fillColor=none;top=0;left=0;bottom=0;right=0;align=left;spacingLeft=6;overflow=hidden;" vertex="1" parent="9ZiiuT-V2A9aqYbKqf6l-29">
          <mxGeometry x="30" width="150" height="30" as="geometry" />
        </mxCell>
        <mxCell id="9ZiiuT-V2A9aqYbKqf6l-32" value="" style="shape=partialRectangle;collapsible=0;dropTarget=0;pointerEvents=0;fillColor=none;top=0;left=0;bottom=0;right=0;points=[[0,0.5],[1,0.5]];portConstraint=eastwest;" vertex="1" parent="9ZiiuT-V2A9aqYbKqf6l-1">
          <mxGeometry y="360" width="180" height="30" as="geometry" />
        </mxCell>
        <mxCell id="9ZiiuT-V2A9aqYbKqf6l-33" value="" style="shape=partialRectangle;connectable=0;fillColor=none;top=0;left=0;bottom=0;right=0;editable=1;overflow=hidden;" vertex="1" parent="9ZiiuT-V2A9aqYbKqf6l-32">
          <mxGeometry width="30" height="30" as="geometry" />
        </mxCell>
        <mxCell id="9ZiiuT-V2A9aqYbKqf6l-34" value="color_desc" style="shape=partialRectangle;connectable=0;fillColor=none;top=0;left=0;bottom=0;right=0;align=left;spacingLeft=6;overflow=hidden;" vertex="1" parent="9ZiiuT-V2A9aqYbKqf6l-32">
          <mxGeometry x="30" width="150" height="30" as="geometry" />
        </mxCell>
        <mxCell id="9ZiiuT-V2A9aqYbKqf6l-35" value="" style="shape=partialRectangle;collapsible=0;dropTarget=0;pointerEvents=0;fillColor=none;top=0;left=0;bottom=0;right=0;points=[[0,0.5],[1,0.5]];portConstraint=eastwest;" vertex="1" parent="9ZiiuT-V2A9aqYbKqf6l-1">
          <mxGeometry y="390" width="180" height="30" as="geometry" />
        </mxCell>
        <mxCell id="9ZiiuT-V2A9aqYbKqf6l-36" value="" style="shape=partialRectangle;connectable=0;fillColor=none;top=0;left=0;bottom=0;right=0;editable=1;overflow=hidden;" vertex="1" parent="9ZiiuT-V2A9aqYbKqf6l-35">
          <mxGeometry width="30" height="30" as="geometry" />
        </mxCell>
        <mxCell id="9ZiiuT-V2A9aqYbKqf6l-37" value="prod_year" style="shape=partialRectangle;connectable=0;fillColor=none;top=0;left=0;bottom=0;right=0;align=left;spacingLeft=6;overflow=hidden;" vertex="1" parent="9ZiiuT-V2A9aqYbKqf6l-35">
          <mxGeometry x="30" width="150" height="30" as="geometry" />
        </mxCell>
      </root>
    </mxGraphModel>
  </diagram>
</mxfile>
